<svg width="44" height="44" viewBox="0 0 44 44" fill="none" xmlns="http://www.w3.org/2000/svg">
<rect x="0.5" y="0.5" width="43" height="43" rx="9.5" stroke="#121417" stroke-opacity="0.1"/>
<g opacity="0.8">
<path d="M25.08 12.0601C25.29 12.0601 25.5 12.0601 25.92 12.0601V15.2101C25.71 15.2101 25.29 15.2101 24.87 15.2101C24.45 15.2101 24.03 15.2101 23.82 15.4201C23.61 15.6301 23.61 15.8401 23.61 16.3301C23.61 16.7501 23.61 17.0301 23.61 17.4501H25.92V20.1101H23.61V31.6601H20.04V20.0401H18.15V17.3801H20.04V16.4701C20.04 14.9301 20.25 13.8101 20.67 13.3201C21.3 12.4101 22.56 11.9901 24.45 11.9901C24.66 12.0601 24.87 12.0601 25.08 12.0601Z" fill="#121417"/>
</g>
</svg>
