<svg width="48" height="48" viewBox="0 0 48 48" fill="none" xmlns="http://www.w3.org/2000/svg">
<ellipse cx="24" cy="24" rx="24" ry="24" transform="matrix(0 1 1 0 0 0)" fill="#4DC274"/>
<path d="M24.71 25.4001C24.6171 25.4938 24.5065 25.5682 24.3846 25.619C24.2627 25.6698 24.132 25.6959 24 25.6959C23.868 25.6959 23.7373 25.6698 23.6154 25.619C23.4936 25.5682 23.383 25.4938 23.29 25.4001L18.71 20.8101C18.6171 20.7164 18.5065 20.642 18.3846 20.5912C18.2627 20.5404 18.132 20.5143 18 20.5143C17.868 20.5143 17.7373 20.5404 17.6154 20.5912C17.4936 20.642 17.383 20.7164 17.29 20.8101C17.1038 20.9975 16.9992 21.2509 16.9992 21.5151C16.9992 21.7793 17.1038 22.0327 17.29 22.2201L21.88 26.8101C22.4425 27.3719 23.205 27.6875 24 27.6875C24.795 27.6875 25.5575 27.3719 26.12 26.8101L30.71 22.2201C30.8948 22.0338 30.9989 21.7824 31 21.5201C31.0008 21.3885 30.9756 21.258 30.9258 21.1362C30.876 21.0143 30.8027 20.9035 30.71 20.8101C30.6171 20.7164 30.5065 20.642 30.3846 20.5912C30.2627 20.5404 30.132 20.5143 30 20.5143C29.868 20.5143 29.7373 20.5404 29.6155 20.5912C29.4936 20.642 29.383 20.7164 29.29 20.8101L24.71 25.4001Z" fill="white"/>
</svg>
